<svg width="18" height="14" viewBox="0 0 18 14" fill="none" xmlns="http://www.w3.org/2000/svg">
<path d="M4.68164 -0.000438539C3.7419 -0.0156403 2.82533 0.291704 2.08472 0.870364C1.3441 1.44902 0.824193 2.26404 0.611645 3.17956C0.397522 4.21854 0.604883 5.30003 1.18811 6.18613C1.77135 7.07223 2.68268 7.69036 3.72164 7.90456L3.74864 7.90956C4.01786 7.9695 4.29284 7.99968 4.56864 7.99956V13.9996H6.56865V1.99956H8.56864V13.9996H10.5686V1.99956H12.5686V-0.000438539H4.68164ZM2.53164 3.99956C2.53164 3.46913 2.74236 2.96042 3.11743 2.58535C3.4925 2.21028 4.00121 1.99956 4.53164 1.99956V5.99956C4.00121 5.99956 3.4925 5.78885 3.11743 5.41377C2.74236 5.0387 2.53164 4.52999 2.53164 3.99956ZM17.4716 12.4906C17.4716 12.7872 17.3837 13.0772 17.2188 13.3239C17.054 13.5706 16.8198 13.7628 16.5457 13.8764C16.2716 13.9899 15.97 14.0196 15.679 13.9617C15.388 13.9039 15.1208 13.761 14.911 13.5512C14.7012 13.3414 14.5583 13.0742 14.5005 12.7832C14.4426 12.4922 14.4723 12.1906 14.5858 11.9165C14.6994 11.6424 14.8916 11.4082 15.1383 11.2434C15.385 11.0785 15.675 10.9906 15.9716 10.9906C16.3695 10.9906 16.751 11.1486 17.0323 11.4299C17.3136 11.7112 17.4716 12.0927 17.4716 12.4906ZM17.4716 8.49056C17.4716 8.78723 17.3837 9.07724 17.2188 9.32392C17.054 9.57059 16.8198 9.76285 16.5457 9.87638C16.2716 9.98991 15.97 10.0196 15.679 9.96174C15.388 9.90386 15.1208 9.761 14.911 9.55122C14.7012 9.34144 14.5583 9.07417 14.5005 8.7832C14.4426 8.49222 14.4723 8.19063 14.5858 7.91654C14.6994 7.64245 14.8916 7.40818 15.1383 7.24336C15.385 7.07853 15.675 6.99056 15.9716 6.99056C16.3695 6.99056 16.751 7.1486 17.0323 7.4299C17.3136 7.71121 17.4716 8.09274 17.4716 8.49056ZM17.4716 4.49056C17.4716 4.78723 17.3837 5.07724 17.2188 5.32392C17.054 5.57059 16.8198 5.76285 16.5457 5.87638C16.2716 5.98991 15.97 6.01962 15.679 5.96174C15.388 5.90386 15.1208 5.761 14.911 5.55122C14.7012 5.34144 14.5583 5.07417 14.5005 4.7832C14.4426 4.49222 14.4723 4.19063 14.5858 3.91654C14.6994 3.64245 14.8916 3.40818 15.1383 3.24336C15.385 3.07853 15.675 2.99056 15.9716 2.99056C16.3695 2.99056 16.751 3.1486 17.0323 3.4299C17.3136 3.71121 17.4716 4.09274 17.4716 4.49056Z" fill="#0B212B"/>
</svg>
