<svg width="20" height="20" viewBox="0 0 20 20" fill="none" xmlns="http://www.w3.org/2000/svg">
<path d="M5.83333 12.5003V9.16699C5.83333 8.72496 6.00893 8.30104 6.32149 7.98848C6.63405 7.67592 7.05797 7.50033 7.5 7.50033C7.94203 7.50033 8.36595 7.67592 8.67851 7.98848C8.99107 8.30104 9.16667 8.72496 9.16667 9.16699V12.5003M5.83333 10.8337H9.16667M14.1667 7.50033V12.5003H12.9167C12.6694 12.5003 12.4278 12.427 12.2222 12.2897C12.0166 12.1523 11.8564 11.9571 11.7618 11.7287C11.6672 11.5003 11.6425 11.2489 11.6907 11.0065C11.7389 10.764 11.858 10.5413 12.0328 10.3664C12.2076 10.1916 12.4303 10.0726 12.6728 10.0243C12.9153 9.97611 13.1666 10.0009 13.395 10.0955C13.6234 10.1901 13.8187 10.3503 13.956 10.5559C14.0934 10.7614 14.1667 11.0031 14.1667 11.2503M4.16667 4.16699H15.8333C16.7538 4.16699 17.5 4.91318 17.5 5.83366V14.167C17.5 15.0875 16.7538 15.8337 15.8333 15.8337H4.16667C3.24619 15.8337 2.5 15.0875 2.5 14.167V5.83366C2.5 4.91318 3.24619 4.16699 4.16667 4.16699Z" stroke="white" stroke-width="1.5" stroke-linecap="round" stroke-linejoin="round"/>
</svg>
