<svg width="20" height="20" viewBox="0 0 20 20" fill="none" xmlns="http://www.w3.org/2000/svg">
<path d="M4.94217 5.77965L6.00467 9.32049M10.6772 13.9947L14.2197 15.0572M9.73552 10.2638L14.5347 5.46466M5.83301 4.58301C5.83301 5.27336 5.27336 5.83301 4.58301 5.83301C3.89265 5.83301 3.33301 5.27336 3.33301 4.58301C3.33301 3.89265 3.89265 3.33301 4.58301 3.33301C5.27336 3.33301 5.83301 3.89265 5.83301 4.58301ZM16.6663 4.58301C16.6663 5.27336 16.1067 5.83301 15.4163 5.83301C14.726 5.83301 14.1663 5.27336 14.1663 4.58301C14.1663 3.89265 14.726 3.33301 15.4163 3.33301C16.1067 3.33301 16.6663 3.89265 16.6663 4.58301ZM16.6663 15.4163C16.6663 16.1067 16.1067 16.6663 15.4163 16.6663C14.726 16.6663 14.1663 16.1067 14.1663 15.4163C14.1663 14.726 14.726 14.1663 15.4163 14.1663C16.1067 14.1663 16.6663 14.726 16.6663 15.4163ZM10.833 12.9163C10.833 14.9874 9.15408 16.6663 7.08301 16.6663C5.01194 16.6663 3.33301 14.9874 3.33301 12.9163C3.33301 10.8453 5.01194 9.16634 7.08301 9.16634C9.15408 9.16634 10.833 10.8453 10.833 12.9163Z" stroke="white" stroke-width="1.5" stroke-linecap="round" stroke-linejoin="round"/>
</svg>
