<svg width="20" height="20" viewBox="0 0 20 20" fill="none" xmlns="http://www.w3.org/2000/svg">
<path d="M15.8333 6.66634C16.7538 6.66634 17.5 5.92015 17.5 4.99967C17.5 4.0792 16.7538 3.33301 15.8333 3.33301H4.16667C3.24619 3.33301 2.5 4.0792 2.5 4.99967C2.5 5.92015 3.24619 6.66634 4.16667 6.66634M15.8333 6.66634H4.16667M15.8333 6.66634V14.9997C15.8333 15.4417 15.6577 15.8656 15.3452 16.1782C15.0326 16.4907 14.6087 16.6663 14.1667 16.6663H5.83333C5.39131 16.6663 4.96738 16.4907 4.65482 16.1782C4.34226 15.8656 4.16667 15.4417 4.16667 14.9997V6.66634M8.33333 9.99967H11.6667" stroke="white" stroke-width="1.5" stroke-linecap="round" stroke-linejoin="round"/>
</svg>
