<svg width="613" height="472" viewBox="0 0 613 472" fill="none" xmlns="http://www.w3.org/2000/svg">
<g opacity="0.1">
<mask id="mask0_1_6136" style="mask-type:alpha" maskUnits="userSpaceOnUse" x="0" y="0" width="804" height="804">
<rect x="169.886" width="656.388" height="656.388" transform="rotate(15 169.886 0)" fill="#C4C4C4"/>
</mask>
<g mask="url(#mask0_1_6136)">
<path fill-rule="evenodd" clip-rule="evenodd" d="M150.426 547.323C130.836 513.415 117.948 476.08 112.496 437.448C107.045 398.816 109.137 359.646 118.654 322.173C128.171 284.701 144.925 249.661 167.96 219.054C190.996 188.448 219.86 162.875 252.906 143.796C285.952 124.717 322.531 112.506 360.555 107.86C398.578 103.214 437.301 106.224 474.512 116.719C511.722 127.213 546.691 144.987 577.421 169.024C608.151 193.061 634.041 222.89 653.611 256.808C673.2 290.716 686.089 328.051 691.54 366.683C696.991 405.315 694.899 444.485 685.382 481.958C675.866 519.43 659.111 554.47 636.076 585.077C613.041 615.683 584.176 641.256 551.13 660.335C518.084 679.414 481.505 691.625 443.482 696.271C405.458 700.917 366.735 697.907 329.525 687.412C292.314 676.918 257.345 659.144 226.615 635.108C195.885 611.071 169.996 581.241 150.426 547.323V547.323Z" stroke="white" stroke-width="2"/>
<path d="M264.799 138.986C264.799 138.986 353.467 127.616 487.063 355.623C620.659 583.63 554.754 658.142 554.754 658.142" stroke="white" stroke-width="2"/>
<path d="M264.8 138.985C264.8 138.985 61.6875 295.373 195.283 523.38C328.879 751.387 554.755 658.142 554.755 658.142" stroke="white" stroke-width="2"/>
<path d="M264.8 138.985C264.8 138.985 203.862 215.274 337.458 443.281C471.054 671.288 554.755 658.142 554.755 658.142" stroke="white" stroke-width="2"/>
<path d="M264.799 138.986C264.799 138.986 480.031 49.9597 613.627 277.967C747.223 505.974 554.755 658.142 554.755 658.142" stroke="white" stroke-width="2"/>
<path d="M264.8 138.985C264.8 138.985 133.344 250.09 266.94 478.097C400.536 706.104 554.755 658.142 554.755 658.142" stroke="white" stroke-width="2"/>
<path d="M264.799 138.985C264.799 138.985 428.567 81.016 562.163 309.023C695.759 537.03 554.755 658.142 554.755 658.142" stroke="white" stroke-width="2"/>
<path d="M264.8 138.985C264.8 138.985 273.104 163.532 406.699 391.538C540.295 619.546 554.755 658.142 554.755 658.142" stroke="white" stroke-width="2"/>
<path d="M366.145 107.858C366.145 107.858 379.757 144.988 294.67 194.112C209.584 243.237 166.858 226.829 166.858 226.829" stroke="white" stroke-width="2"/>
<path d="M483.435 120.338C483.435 120.338 508.899 174.097 340.862 271.113C172.825 368.129 113.153 338.032 116.934 337.805" stroke="white" stroke-width="2"/>
<path d="M560.378 156.111C560.378 156.111 579.084 233.332 382.754 346.683C186.424 460.034 111.757 422.947 111.757 422.947" stroke="white" stroke-width="2"/>
<path d="M630.273 223.338C630.273 223.338 629.492 296.162 419.013 417.682C208.535 539.202 134.802 513.31 134.802 513.31" stroke="white" stroke-width="2"/>
<path d="M664.997 283.487C664.997 283.487 669.96 362.774 460.104 483.935C250.249 605.095 170.997 572.61 170.997 572.61" stroke="white" stroke-width="2"/>
<path d="M687.742 356.42C687.742 356.42 691.055 430.792 494.117 544.494C297.178 658.197 224.253 627.927 224.253 627.927" stroke="white" stroke-width="2"/>
<path d="M692.201 437.954C692.201 437.954 696.037 502.244 525.539 600.681C355.041 699.118 291.167 673.403 291.167 673.403" stroke="white" stroke-width="2"/>
</g>
</g>
</svg>
