<svg width="147" height="48" viewBox="0 0 147 48" fill="none" xmlns="http://www.w3.org/2000/svg">
<path d="M146.572 47.5629V47.4712C146.442 47.4712 146.307 47.4642 146.164 47.4505C146.022 47.4372 145.923 47.4201 145.869 47.3993C145.814 47.3796 145.781 47.3589 145.767 47.3386C145.746 47.2975 145.737 47.209 145.737 47.0724V44.3606C145.737 44.0604 145.631 43.8011 145.421 43.5828C145.169 43.3232 144.83 43.1936 144.403 43.1936C144.341 43.1936 144.206 43.2057 143.995 43.2292C143.784 43.2531 143.584 43.4211 143.394 43.7326C143.258 43.9569 143.169 44.2144 143.128 44.5057V43.2037L141.286 43.3673V43.4589C141.733 43.4589 141.991 43.4827 142.059 43.5309L142.121 43.6334C142.147 43.668 142.162 43.7153 142.166 43.7771C142.169 43.8386 142.172 43.8999 142.172 43.9619V47.0706C142.172 47.2355 142.151 47.3345 142.11 47.3687C141.994 47.4098 141.865 47.4372 141.719 47.4504C141.572 47.464 141.425 47.4711 141.275 47.4711V47.5627H143.882V47.4711C143.781 47.4711 143.664 47.464 143.531 47.4504C143.398 47.4371 143.307 47.42 143.256 47.3991C143.205 47.3787 143.173 47.3585 143.16 47.3376C143.139 47.2968 143.128 47.2076 143.128 47.0706V45.0601C143.19 44.5747 143.295 44.1851 143.445 43.8907C143.642 43.5012 143.895 43.3058 144.208 43.3058C144.445 43.3058 144.61 43.446 144.698 43.7266C144.751 43.8978 144.779 44.1467 144.779 44.4751V47.0705C144.779 47.2353 144.758 47.3343 144.719 47.3685C144.61 47.4096 144.484 47.4371 144.341 47.4502C144.199 47.4639 144.072 47.4709 143.965 47.4709V47.5625H146.572V47.5629ZM145.704 34.3353C146.283 33.3939 146.572 31.6545 146.572 29.1185C146.536 28.3571 146.518 27.5612 146.518 26.727V24.2271H145.866V26.8229C145.866 29.8521 145.706 31.9069 145.387 32.9886C144.925 34.5744 143.967 35.3676 142.512 35.3676C141.269 35.3676 140.47 34.6821 140.114 33.3081C139.972 32.7307 139.902 31.465 139.902 29.5139V14.7715H146.138V13.195H139.902V1.72839H138.98C138.98 4.45737 138.375 6.91421 137.168 9.09749C135.666 11.8265 133.432 13.5544 130.467 14.2822V14.7716H134.805V30.2051C134.805 32.1618 135.311 33.6654 136.323 34.716C137.335 35.7671 138.925 36.2921 141.096 36.2921C143.372 36.2921 144.908 35.6399 145.704 34.3355V34.3353ZM131.181 43.2038C130.835 43.2038 130.54 43.3284 130.299 43.5768C130.058 43.8247 129.938 44.1261 129.938 44.48C129.938 44.8745 130.081 45.1913 130.368 45.4293C130.606 45.6266 130.941 45.7695 131.375 45.858C131.808 45.9469 132.11 46.0486 132.279 46.1645C132.498 46.3141 132.607 46.5422 132.607 46.8479C132.607 47.0863 132.524 47.2703 132.362 47.3991C132.226 47.5083 132.051 47.5627 131.84 47.5627C131.56 47.5627 131.351 47.5439 131.21 47.5067C131.071 47.4695 130.922 47.3756 130.766 47.2261C130.649 47.1172 130.54 46.9505 130.438 46.7254C130.364 46.5626 130.268 46.2702 130.152 45.8478H130.081V47.6552C130.094 47.6411 130.237 47.4744 130.509 47.1546C130.733 47.3859 130.94 47.532 131.13 47.5934C131.258 47.6345 131.473 47.6552 131.772 47.6552C132.132 47.6552 132.431 47.5699 132.668 47.3993C132.967 47.1891 133.116 46.8622 133.116 46.4198C133.116 45.9435 132.978 45.5967 132.699 45.3785C132.504 45.2222 132.162 45.0856 131.674 44.9702C131.188 44.8543 130.863 44.749 130.7 44.6535C130.471 44.5176 130.356 44.3266 130.356 44.0819C130.356 43.7825 130.461 43.5684 130.671 43.4386C130.828 43.3431 131.028 43.2957 131.272 43.2957C131.592 43.2957 131.884 43.4355 132.148 43.7142C132.394 43.9734 132.563 44.3065 132.658 44.7148L132.74 44.7347V43.2037C132.726 43.2173 132.587 43.323 132.322 43.5204C132.281 43.5136 132.132 43.4518 131.874 43.3364C131.677 43.2482 131.446 43.2037 131.181 43.2037V43.2038ZM116.097 35.8026H130.087V35.3136C129.328 35.3136 128.568 35.278 127.81 35.2048C127.051 35.132 126.526 35.0412 126.237 34.9323C125.947 34.8239 125.767 34.7143 125.695 34.6054C125.586 34.3877 125.532 33.9161 125.532 33.1895V18.7528C125.532 17.1191 125.025 15.7391 124.014 14.6133C122.748 13.2333 120.85 12.5428 118.32 12.5428C118.175 12.5428 117.931 12.5617 117.588 12.5973C117.244 12.6337 116.928 12.652 116.639 12.652C115.193 12.7973 113.946 13.7028 112.897 15.3692C112.065 16.7096 111.542 18.1048 111.325 19.5532V0.31543L100.913 1.23884V1.72823C103.155 1.72823 104.6 1.81984 105.251 2.00195C105.469 2.07473 105.703 2.29323 105.957 2.65651C106.101 2.83893 106.182 3.09382 106.2 3.42181C106.218 3.74948 106.228 4.14915 106.228 4.62286V33.184C106.228 34.0577 106.119 34.5858 105.903 34.7679C105.287 34.9868 104.555 35.132 103.706 35.2048C102.856 35.278 101.908 35.3136 100.859 35.3136V35.8026H115.338V35.3136C114.795 35.3136 114.172 35.278 113.467 35.2048C112.762 35.132 112.273 35.0412 112.003 34.9312C111.732 34.8228 111.56 34.7135 111.488 34.6039C111.379 34.3854 111.325 33.9129 111.325 33.184V22.2615C111.65 19.8586 112.265 17.8195 113.169 16.1444C114.253 14.142 115.554 13.1406 117.073 13.1406C118.483 13.1406 119.44 13.7423 119.947 14.9426C120.273 15.7079 120.435 16.8725 120.435 18.4389V33.1842C120.435 34.0579 120.326 34.586 120.11 34.7681C119.531 34.9869 118.863 35.1322 118.104 35.2049C117.344 35.2782 116.675 35.3138 116.097 35.3138V35.8027V35.8026ZM104.778 40.9782H100.858V41.0703C101.387 41.0703 101.761 41.1114 101.978 41.1928C102.046 41.2202 102.086 41.248 102.099 41.275C102.127 41.3294 102.141 41.4522 102.141 41.6429V45.7018C102.141 46.3289 102.426 46.8195 102.997 47.1745C103.512 47.4951 104.154 47.6552 104.922 47.6552C105.33 47.6552 105.72 47.5249 106.093 47.2661C106.629 46.8913 106.898 46.3359 106.898 45.5996V42.5325C106.898 42.0486 106.958 41.7046 107.081 41.4997C107.25 41.2132 107.591 41.0703 108.099 41.0703V40.9782H105.36V41.0703C105.855 41.0703 106.211 41.205 106.429 41.4735C106.647 41.7425 106.754 42.2276 106.754 42.9282V45.5926C106.754 46.2459 106.52 46.7497 106.052 47.1036C105.72 47.3553 105.376 47.4813 105.024 47.4813C104.386 47.4813 103.943 47.3044 103.699 46.9505C103.496 46.6576 103.394 46.1711 103.394 45.4906V41.6422C103.394 41.4582 103.41 41.3357 103.445 41.2742C103.458 41.2472 103.509 41.2166 103.597 41.1826C103.686 41.1485 103.826 41.1211 104.021 41.1012C104.213 41.0805 104.467 41.0703 104.778 41.0703V40.9782H104.778ZM78.953 30.314C78.953 29.0821 79.4699 28.1941 80.5061 27.6512C81.2932 27.2523 82.3116 27.0527 83.561 27.0527C85.0438 27.6329 86.616 27.9226 88.2793 27.9226C90.6288 27.9226 92.744 27.2892 94.6237 26.0204C96.7197 24.6076 97.7685 22.7967 97.7685 20.5859C97.7685 19.1007 97.3619 17.7967 96.5489 16.6732C95.7357 15.5504 94.6237 14.6446 93.2139 13.9555C93.2139 13.5953 93.1948 13.0352 93.1603 12.2765C93.1603 11.3725 93.2759 10.6598 93.5115 10.1359C93.7475 9.61167 94.2257 9.29576 94.949 9.18737C94.8401 9.37136 94.7507 9.55567 94.6775 9.73935C94.6046 9.92255 94.5701 10.1246 94.5701 10.3445C94.5701 11.5205 95.1834 12.108 96.4138 12.108C97.6055 12.108 98.2025 11.4652 98.2025 10.1789C98.2025 9.59128 98.0041 9.11396 97.6056 8.74645C97.2076 8.37956 96.7388 8.19526 96.1958 8.19526C94.967 8.19526 94.0545 8.4583 93.458 8.9833C92.8611 9.50861 92.5635 10.6228 92.5635 12.3253V13.6297C91.9119 13.34 91.2077 13.1047 90.4483 12.9231C89.6889 12.7422 88.9655 12.6517 88.2793 12.6517C85.9657 12.6517 83.8505 13.3944 81.9348 14.8797C79.8377 16.5097 78.7891 18.4847 78.7891 20.803C78.7891 22.1807 79.1157 23.3394 79.766 24.2816C80.4164 25.2239 81.319 25.9846 82.4764 26.5639C80.8131 26.5639 79.53 27.0525 78.6261 28.0311C77.7222 29.0094 77.2714 30.2594 77.2714 31.7811C77.2714 33.2308 77.7953 34.4083 78.8441 35.3133C79.603 35.9655 80.7771 36.5814 82.369 37.1611C80.5968 37.6681 79.2961 38.157 78.4636 38.6283C77.2714 39.3161 76.6749 40.1676 76.6749 41.183C76.6749 42.7395 77.7593 44.1258 79.9283 45.34C82.0975 46.5532 85.0064 47.1608 88.6579 47.1608C91.7308 47.1608 94.2172 46.4354 96.1143 44.9866C98.012 43.537 98.9614 41.472 98.9614 38.7916C98.9614 36.2549 97.9153 34.4439 95.8248 33.3569C94.1658 32.4874 91.7322 32.0524 88.5241 32.0524H85.3867C82.8633 32.0524 81.17 31.8896 80.3044 31.5638C79.4032 31.2741 78.9524 30.8569 78.9524 30.3139L78.953 30.314ZM88.9591 36.944C91.9121 36.944 93.9374 37.2529 95.0359 37.8729C96.1343 38.4914 96.684 39.6757 96.684 41.4248C96.684 42.8818 96.0117 44.121 94.6653 45.1418C93.3177 46.1612 91.4244 46.6717 88.9826 46.6717C85.4631 46.6717 83.0378 46.0915 81.7094 44.9328C80.847 44.1718 80.4168 43.0307 80.4168 41.509C80.4168 39.9141 80.9403 38.7918 81.989 38.1393C83.2499 37.3423 85.5733 36.944 88.9593 36.944H88.9591ZM83.6702 20.3143C83.6702 18.088 84.0366 16.3353 84.7685 15.0572C85.5001 13.7806 86.6712 13.1406 88.2794 13.1406C90.0298 13.1406 91.2629 13.8167 91.9782 15.1669C92.5844 16.2986 92.8891 18.0148 92.8891 20.3144C92.8891 22.7611 92.5309 24.5596 91.8169 25.7093C91.1017 26.8588 89.9236 27.4338 88.2794 27.4338C86.4564 27.4338 85.2326 26.887 84.6084 25.7912C83.983 24.6962 83.67 22.8709 83.67 20.3146L83.6702 20.3143ZM59.8653 35.8026H75.6997V35.3136C73.313 35.3136 71.7409 35.1864 70.9815 34.9312C70.728 34.8228 70.5655 34.7135 70.4936 34.6039C70.3851 34.3854 70.3311 33.9129 70.3311 33.184V12.5973L59.8653 13.4672V13.9558C62.1789 13.9558 63.6616 14.0479 64.312 14.2294C64.5284 14.3021 64.7641 14.5219 65.0176 14.8871C65.161 15.0703 65.2339 15.5084 65.2339 16.2012V33.1782C65.2339 34.0539 65.125 34.5844 64.9086 34.7664C64.2942 34.9852 63.5609 35.1309 62.7121 35.2045C61.8618 35.2773 60.9137 35.3136 59.8655 35.3136V35.8026H59.8653ZM72.1005 5.41169C72.1005 5.3902 72.106 5.36871 72.1087 5.34706C72.1087 5.23036 72.1087 5.11334 72.1087 4.99664C72.1032 4.93751 72.0977 4.87806 72.0935 4.81893C72.0454 4.16045 71.8619 3.54118 71.5478 2.96175C71.2763 2.45871 70.9222 2.01983 70.4869 1.64839C69.8307 1.08904 69.0799 0.736273 68.2295 0.596515C68.0698 0.569535 67.9057 0.560125 67.7432 0.542871C67.7171 0.539734 67.6909 0.536599 67.6646 0.533462C67.5475 0.533462 67.4318 0.533462 67.3147 0.533462C67.2085 0.542403 67.1022 0.549929 66.9964 0.562007C66.2205 0.644984 65.5081 0.906152 64.8671 1.35272C63.9964 1.95991 63.3969 2.77305 63.0729 3.7865C62.953 4.16029 62.887 4.54474 62.869 4.93626C62.8679 4.95665 62.8636 4.97688 62.8609 4.99649C62.8609 5.11319 62.8609 5.2302 62.8609 5.3469C62.8679 5.41545 62.8734 5.48431 62.8789 5.55286C62.9325 6.2024 63.1144 6.81414 63.4285 7.38415C63.9179 8.26961 64.6191 8.93091 65.5327 9.36431C66.0799 9.62312 66.6556 9.76397 67.2597 9.79331C67.2772 9.79409 67.2968 9.79832 67.3148 9.80068C67.4319 9.80068 67.5477 9.80068 67.6648 9.80068C67.7651 9.79205 67.8671 9.78389 67.969 9.77291C68.501 9.71817 69.0069 9.57371 69.4878 9.34031C69.9741 9.10581 70.4069 8.79507 70.7831 8.40858C71.3839 7.79166 71.7861 7.06385 71.9847 6.22373C72.0484 5.95629 72.0866 5.68587 72.1007 5.41137L72.1005 5.41169ZM68.7768 1.0961C68.7685 1.1074 68.7614 1.12042 68.7517 1.12936C68.7243 1.15634 68.6911 1.16386 68.6662 1.13045C68.6335 1.08904 68.621 1.10614 68.6045 1.143C68.581 1.19429 68.5397 1.2252 68.4874 1.24716C68.4678 1.255 68.4503 1.2721 68.4362 1.28935C68.4155 1.31633 68.3936 1.34535 68.3811 1.37703C68.3424 1.47099 68.2726 1.50973 68.1744 1.51758C68.1428 1.52024 68.1069 1.54299 68.085 1.5673C67.9886 1.67569 67.8976 1.78847 67.8054 1.89968C67.764 1.9494 67.7597 1.95019 67.7063 1.91223C67.6043 1.84054 67.5613 1.73294 67.5296 1.61906C67.5035 1.52118 67.4936 1.42566 67.5461 1.3306C67.5696 1.28637 67.5835 1.23743 67.6015 1.19006C67.6125 1.15916 67.607 1.13532 67.5668 1.1361C67.5253 1.1372 67.4827 1.13955 67.4413 1.1419C67.4554 1.17751 67.4664 1.21516 67.4828 1.24872C67.5063 1.29139 67.5051 1.31884 67.4609 1.34927C67.3961 1.39429 67.3383 1.44746 67.2805 1.50001C67.25 1.52699 67.2348 1.53169 67.2032 1.49766C67.1687 1.4597 67.1232 1.4197 67.0751 1.40872C67.0239 1.39617 66.9649 1.41609 66.9084 1.42393C66.8919 1.42597 66.8752 1.4357 66.8587 1.43836C66.8161 1.44432 66.7748 1.44699 66.7443 1.40464C66.7225 1.37374 66.6935 1.38425 66.6685 1.40119C66.6107 1.44275 66.5529 1.48621 66.4952 1.52966C66.4839 1.5364 66.4728 1.5433 66.4635 1.55004C66.3699 1.60996 66.3323 1.70784 66.3616 1.81545C66.3791 1.87568 66.4233 1.89968 66.4811 1.87411C66.5775 1.83254 66.6701 1.78721 66.7155 1.68149C66.7197 1.6713 66.7526 1.66235 66.7638 1.66816C66.8354 1.70878 66.8893 1.67945 66.9416 1.6313C66.9716 1.60463 67.0048 1.58079 67.0408 1.56275C67.0779 1.54393 67.1096 1.55883 67.1373 1.58973C67.1673 1.62486 67.2018 1.6578 67.2376 1.68792C67.286 1.72902 67.2954 1.76117 67.2654 1.81953C67.2473 1.85403 67.2251 1.8865 67.2076 1.92132C67.2005 1.93387 67.2032 1.95113 67.2018 1.96603C67.2159 1.96634 67.2311 1.96916 67.2431 1.96634C67.3009 1.95505 67.304 1.95505 67.2915 2.01214C67.2774 2.0763 67.2654 2.1428 67.2376 2.20162C67.1924 2.30186 67.1041 2.32225 67.0119 2.26311C66.9084 2.1966 66.8893 2.20162 66.8146 2.30342C66.8009 2.32334 66.7748 2.34217 66.7513 2.34609C66.6821 2.35785 66.6123 2.36915 66.542 2.36758C66.4249 2.36476 66.3201 2.40444 66.2155 2.44632C66.1698 2.46546 66.1245 2.49024 66.0776 2.50624C66.0525 2.51487 66.0209 2.52067 66.0002 2.51126C65.9587 2.49291 65.9354 2.5133 65.908 2.53432C65.7935 2.62278 65.6681 2.69086 65.5317 2.73682C65.5029 2.74702 65.4889 2.76176 65.4849 2.79281C65.4685 2.91265 65.4489 3.03249 65.4283 3.15217C65.4256 3.16896 65.4102 3.19405 65.3982 3.19688C65.3802 3.2008 65.3486 3.19217 65.3415 3.17853C65.3127 3.12723 65.2822 3.07406 65.2685 3.01728C65.2325 2.85728 65.1431 2.77572 64.9779 2.77807C64.7435 2.78121 64.5643 2.89242 64.4349 3.07986C64.3827 3.15704 64.374 3.25523 64.3947 3.34919C64.41 3.42165 64.4694 3.45757 64.5489 3.44942C64.5782 3.44675 64.6084 3.44126 64.6372 3.4353C64.6842 3.42479 64.7158 3.44392 64.7392 3.48345C64.7616 3.52267 64.7473 3.55906 64.7201 3.58714C64.6884 3.61772 64.6526 3.64345 64.6181 3.6709C64.563 3.7156 64.563 3.76125 64.6236 3.79779C64.6579 3.8185 64.665 3.84171 64.6623 3.87889C64.6552 3.95371 64.6542 4.02916 64.6542 4.10476C64.6552 4.17519 64.6886 4.22852 64.7464 4.26601C64.7835 4.28985 64.8206 4.31495 64.8608 4.33299C64.9725 4.3835 65.0565 4.3573 65.1268 4.25707C65.2011 4.14899 65.2551 4.14821 65.3636 4.22335C65.4394 4.27668 65.5277 4.3173 65.616 4.34789C65.7304 4.3871 65.8324 4.43839 65.9094 4.53423C65.929 4.55682 65.959 4.57251 65.9878 4.58396C66.1574 4.65203 66.3062 4.74834 66.4167 4.89641C66.4374 4.92308 66.4609 4.94928 66.4703 4.98018C66.5186 5.13954 66.6386 5.25844 66.7117 5.40416C66.7198 5.42015 66.7433 5.43427 66.7624 5.43851C66.9249 5.47412 67.0781 5.53294 67.2077 5.64132C67.3245 5.73842 67.3413 5.79677 67.2999 5.94233C67.271 6.03942 67.2171 6.11926 67.1359 6.17871C67.0988 6.20616 67.0753 6.2402 67.0616 6.28318C67.0382 6.3489 67.0104 6.41274 66.9885 6.47862C66.9444 6.61712 66.8534 6.72865 66.7596 6.83296C66.7115 6.88849 66.6259 6.92378 66.5503 6.94135C66.4455 6.96629 66.3699 7.0157 66.3132 7.10699C66.2636 7.1884 66.2016 7.26274 66.1535 7.34541C66.086 7.45928 65.9993 7.54775 65.8875 7.61897C65.7895 7.68124 65.7016 7.75872 65.6144 7.83543C65.5801 7.86601 65.5555 7.91103 65.5305 7.95166C65.5098 7.98381 65.5015 8.02256 65.4824 8.05424C65.4286 8.13847 65.4273 8.22569 65.4492 8.3209C65.4743 8.42113 65.489 8.52403 65.5086 8.62661C65.5167 8.66771 65.5043 8.68057 65.4644 8.66457C65.4203 8.64653 65.3777 8.62457 65.3403 8.59681C65.2054 8.49736 65.1048 8.36497 65.029 8.21706C65.0028 8.16467 65.0044 8.098 64.9945 8.0373C64.9794 7.94805 64.9697 7.8588 64.9379 7.77112C64.9144 7.70602 64.9199 7.629 64.9231 7.55732C64.9258 7.4916 64.9396 7.42619 64.9504 7.36078C64.9613 7.29318 64.9629 7.22965 64.9433 7.15844C64.9258 7.08675 64.9433 7.00378 64.9532 6.9266C64.9697 6.79657 64.993 6.66826 65.011 6.53948C65.0138 6.52537 65.0083 6.50545 65 6.49682C64.9106 6.41384 64.9008 6.31 64.9285 6.20051C64.9379 6.15895 64.9269 6.1395 64.8937 6.11628C64.7285 6.00037 64.6128 5.83912 64.5054 5.67191C64.4902 5.64807 64.483 5.61638 64.4793 5.58689C64.468 5.51568 64.4612 5.44447 64.4531 5.37357C64.4363 5.23507 64.4487 5.10347 64.5398 4.98802C64.5934 4.91916 64.6418 4.84434 64.6927 4.77234C64.7493 4.69172 64.7771 4.6009 64.7755 4.50192C64.7744 4.45063 64.7548 4.40718 64.7107 4.37706C64.6981 4.36812 64.6872 4.35589 64.6736 4.3493C64.5729 4.29801 64.5233 4.21425 64.5139 4.1046C64.5057 4.02712 64.4681 3.96877 64.4036 3.92798C64.3595 3.89865 64.3552 3.86022 64.3634 3.81332C64.3801 3.71905 64.3786 3.71984 64.2947 3.67796C64.2053 3.63372 64.1208 3.58165 64.0603 3.49945C64.0231 3.4502 64.0036 3.39499 64.0106 3.33225C64.0161 3.27248 64.0216 3.21256 64.0313 3.15374C64.0477 3.06371 64.0216 2.987 63.9691 2.91532C63.9074 2.83046 63.9074 2.82968 63.9652 2.74466C64.4996 1.97622 65.2055 1.43397 66.0871 1.12042C66.5199 0.966541 66.9772 0.890308 67.4792 0.884347C67.9104 0.885916 68.3308 0.947402 68.7428 1.0754C68.7548 1.07885 68.7647 1.08873 68.7772 1.09579L68.7768 1.0961ZM71.7587 5.12589C71.7489 6.09322 71.4818 6.93099 70.9416 7.67951C70.6206 8.12467 70.2263 8.4925 69.7635 8.7877C69.7608 8.78927 69.7577 8.79162 69.7549 8.79288C69.7439 8.7968 69.733 8.80072 69.722 8.80495C69.7287 8.79476 69.7356 8.78456 69.7411 8.77405C69.766 8.72951 69.7989 8.68684 69.8142 8.63869C69.8239 8.60779 69.8169 8.56089 69.7978 8.53344C69.7673 8.48638 69.7633 8.44293 69.7842 8.39556C69.8338 8.27855 69.8861 8.16185 69.9368 8.04562C69.9575 8.0006 69.9768 7.95589 69.999 7.91292C70.0306 7.85064 70.0334 7.78649 70.0181 7.7203C70.0056 7.66791 69.9946 7.61536 69.9854 7.5625C69.9561 7.39654 70.0361 7.26682 70.1283 7.14275C70.1576 7.10558 70.1931 7.07389 70.2249 7.0386C70.3256 6.92551 70.3655 6.79814 70.3104 6.65022C70.2952 6.61101 70.2843 6.56913 70.2678 6.53007C70.2237 6.42011 70.2307 6.31204 70.2744 6.20365C70.2912 6.16099 70.3034 6.11707 70.3214 6.07519C70.3627 5.97935 70.3601 5.88257 70.3355 5.78391C70.3256 5.74312 70.3051 5.73653 70.2691 5.75018C70.2526 5.75802 70.2346 5.77057 70.2166 5.76979C70.1931 5.76947 70.1604 5.76665 70.1452 5.75097C70.105 5.70563 70.0543 5.68869 69.9991 5.68791C69.8972 5.68556 69.7937 5.68164 69.6932 5.6923C69.5362 5.70799 69.3968 5.66642 69.2769 5.57293C69.1297 5.45827 68.9917 5.33185 68.8538 5.20495C68.8277 5.18142 68.8183 5.13217 68.8151 5.09264C68.7987 4.91916 68.84 4.75242 68.88 4.58521C68.9034 4.48263 68.9202 4.37894 68.9394 4.27558C68.9421 4.2602 68.9421 4.24154 68.9351 4.22899C68.9034 4.17425 68.9257 4.12641 68.9502 4.07825C69.008 3.96469 69.0963 3.88485 69.2178 3.84736C69.2686 3.83167 69.3101 3.80626 69.3378 3.76281C69.412 3.64611 69.5167 3.58557 69.6503 3.54949C69.8393 3.4971 70.0237 3.488 70.2101 3.55153C70.2373 3.56173 70.2691 3.56173 70.2979 3.56376C70.3615 3.56847 70.4249 3.56533 70.4853 3.57898C70.5376 3.59074 70.5901 3.61411 70.6341 3.6447C70.7266 3.70933 70.8133 3.78368 70.9043 3.84987C70.9289 3.86791 70.9633 3.8781 70.9937 3.88077C71.0847 3.8894 71.1758 3.89065 71.2663 3.89756C71.2968 3.89959 71.3011 3.88861 71.2984 3.86304C71.2817 3.71199 71.1688 3.59639 71.0172 3.57929C70.9305 3.56957 70.8957 3.53773 70.8711 3.44973C70.8667 3.43373 70.8586 3.41836 70.8531 3.40267C70.8406 3.41397 70.8285 3.42542 70.816 3.43561C70.7925 3.45522 70.7692 3.47389 70.7457 3.49271C70.7277 3.46683 70.7058 3.44267 70.6906 3.41491C70.6754 3.38793 70.6683 3.35656 70.6563 3.32722C70.6438 3.29821 70.6258 3.29272 70.6038 3.3186C70.5941 3.33083 70.5844 3.34793 70.5719 3.35264C70.5429 3.36393 70.5102 3.37961 70.4825 3.37412C70.4465 3.36675 70.4219 3.33695 70.4192 3.29429C70.4177 3.25868 70.415 3.2226 70.4095 3.187C70.4056 3.15845 70.3915 3.15092 70.3643 3.16739C70.3491 3.17602 70.324 3.17837 70.3092 3.17257C70.2346 3.1412 70.1615 3.10841 70.0912 3.07123C70.064 3.05633 70.0585 3.06339 70.0552 3.08692C70.0442 3.16127 70.0322 3.23562 70.0236 3.31091C70.0209 3.34965 70.0087 3.3724 69.9685 3.37867C69.934 3.38338 69.8997 3.39122 69.8681 3.40252C69.7139 3.45428 69.6104 3.39859 69.5221 3.26825C69.4724 3.19531 69.4353 3.11484 69.3901 3.03845C69.3749 3.01069 69.383 2.99626 69.4076 2.98214C69.5001 2.92928 69.5966 2.89524 69.7068 2.89446C69.7936 2.89399 69.8584 2.83219 69.9177 2.77352C69.9478 2.74293 69.9728 2.70498 69.9963 2.6678C70.0045 2.65494 70.0089 2.62984 70.0018 2.61729C69.9647 2.54687 69.9561 2.4744 69.9757 2.39801C69.9854 2.36005 69.9757 2.33542 69.9299 2.33856C69.9245 2.33856 69.9179 2.33511 69.9124 2.33542C69.8225 2.33825 69.7593 2.30405 69.7261 2.21605C69.7125 2.17684 69.671 2.17418 69.6382 2.17527C69.5484 2.1781 69.5015 2.12398 69.4895 2.04728C69.4741 1.95176 69.4727 1.85356 69.4699 1.75647C69.4688 1.7447 69.4922 1.72431 69.507 1.72165C69.5538 1.71224 69.6008 1.70878 69.6476 1.70518C69.714 1.70047 69.7524 1.66722 69.7637 1.60228C69.7704 1.56353 69.7828 1.56071 69.8159 1.58267C70.462 2.0101 70.9608 2.56836 71.3097 3.26244C71.548 3.73772 71.6886 4.24075 71.7382 4.76999C71.7507 4.903 71.7547 5.03696 71.7589 5.12621L71.7587 5.12589ZM59.3236 16.8365C59.3236 16.2926 59.1872 15.6773 58.9169 14.9887C58.6454 14.3006 58.1123 13.7301 57.3174 13.2765C56.5209 12.8239 55.7795 12.5973 55.0932 12.5973C53.2851 12.5973 51.7859 13.5039 50.5925 15.315C49.7257 16.6194 49.2187 18.0141 49.0742 19.4994V12.5974L38.6095 13.4129V13.9023C40.9216 13.9023 42.4044 13.9939 43.0548 14.1751C43.2728 14.2483 43.5067 14.4675 43.7603 14.8328C43.9053 15.016 43.9767 15.4721 43.9767 16.2026V33.1785C43.9767 34.0542 43.8693 34.5847 43.6517 34.7667C43.0368 34.9855 42.3053 35.1312 41.4565 35.2048C40.6061 35.2776 39.657 35.314 38.6096 35.314V35.8029H54.4428V35.314C52.0574 35.314 50.4851 35.1867 49.7257 34.9315C49.4722 34.8232 49.3097 34.7138 49.2367 34.6042C49.1293 34.3857 49.0742 33.9132 49.0742 33.1843V23.026C49.0742 19.9319 49.7589 17.401 51.1272 15.435C52.1701 13.9065 53.2151 13.1409 54.258 13.1409C55.3384 13.1409 55.9862 13.5218 56.2025 14.2825C55.5451 14.1381 54.9705 14.3909 54.4772 15.0431C53.9839 15.6953 53.7385 16.3475 53.7385 16.9997C53.7385 18.0144 53.9936 18.7755 54.505 19.2825C55.0159 19.7899 55.6362 20.0431 56.3666 20.0431C56.8404 20.0431 57.2237 19.9708 57.5159 19.8255C58.7217 19.2825 59.3237 18.2863 59.3237 16.8369L59.3236 16.8365ZM33.7366 20.855C31.7178 18.8988 28.5456 17.648 24.2204 17.1047C28.3266 16.4892 31.1186 15.4386 32.5956 13.9536C33.7131 12.8664 34.2713 11.2369 34.2713 9.0633C34.2713 7.28831 33.3495 5.56823 31.5057 3.90101C29.1921 1.8007 26.0832 0.750077 22.1793 0.750077H0.000156728V1.239C3.54313 1.239 5.83742 1.43946 6.88742 1.83882C7.28433 1.98517 7.51873 2.1301 7.59169 2.27535C7.73621 2.56663 7.80933 3.22072 7.80933 4.23746V32.2066C7.80933 33.2606 7.73621 33.9236 7.59169 34.196C7.44686 34.4696 7.19336 34.6784 6.8323 34.8228C6.07291 35.1141 3.79647 35.2594 0 35.2594V35.8027H25.2701C28.5236 35.8027 31.234 34.77 33.4031 32.7045C35.2827 30.9295 36.2238 29.0262 36.2238 26.9976C36.2238 24.4976 35.3941 22.4499 33.7362 20.855H33.7366ZM19.5019 16.8906H14.4793V4.24907C14.4793 3.19123 14.5234 2.48067 14.6141 2.11551C14.7039 1.75019 14.9285 1.51334 15.2894 1.40386C15.6476 1.29468 16.2058 1.239 16.9636 1.239H19.5542C22.4716 1.239 24.5415 1.85984 25.765 3.09978C26.9888 4.34036 27.6021 6.49305 27.6021 9.55755C27.6021 12.2944 26.8455 14.2466 25.3338 15.4131C24.0729 16.398 22.1284 16.8906 19.502 16.8906H19.5019ZM29.3368 27.0279C29.3368 29.5716 28.7551 31.5529 27.5951 32.9704C26.3245 34.5327 24.4022 35.3136 21.8269 35.3136C19.3589 35.3136 17.7891 35.2961 17.118 35.2592C16.4469 35.2236 15.9028 35.1234 15.4853 34.9593C15.0692 34.7965 14.7962 34.5686 14.6697 34.2786C14.5427 33.9885 14.4794 33.2968 14.4794 32.2065V17.3798H20.9007C23.7311 17.3798 25.8713 18.2704 27.3225 20.0512C28.6646 21.6868 29.3368 24.0114 29.3368 27.0277V27.0279ZM110.627 43.9097L108.12 47.563H111.98V45.3993H111.899C111.804 46.1717 111.605 46.7326 111.303 47.0815C111.085 47.3414 110.819 47.4712 110.503 47.4712H109.476C109.333 47.4712 109.261 47.4576 109.261 47.4302C109.261 47.4098 109.373 47.236 109.599 46.9088L112.154 43.2038H108.66V45.0618H108.731C108.853 44.2952 109.052 43.7922 109.33 43.5527C109.519 43.3878 109.854 43.3061 110.333 43.3061H110.739C110.901 43.3061 110.982 43.3233 110.982 43.3574L110.627 43.9097H110.627ZM112.052 41.1623C112.459 41.1623 112.72 41.1796 112.836 41.2132C112.877 41.2268 112.917 41.2613 112.958 41.3157C113 41.3705 113.019 41.4657 113.019 41.6018V47.6552H113.1L113.539 46.8652C113.763 47.1826 113.975 47.3933 114.175 47.4982C114.376 47.6024 114.684 47.6552 115.097 47.6552C115.552 47.6552 115.954 47.4356 116.304 46.9964C116.654 46.5576 116.829 46.0283 116.829 45.4086C116.829 44.9259 116.693 44.4664 116.421 44.0311C116.075 43.4799 115.597 43.2038 114.986 43.2038C114.714 43.2038 114.478 43.3412 114.277 43.616C114.077 43.8909 113.976 44.1837 113.976 44.496V40.8968L112.052 41.0703V41.1623H112.052ZM113.977 45.3476C113.977 44.6836 114.086 44.1643 114.303 43.7883C114.487 43.4669 114.714 43.3059 114.986 43.3059C115.236 43.3059 115.43 43.4669 115.566 43.7883C115.702 44.1097 115.77 44.653 115.77 45.4191C115.77 46.0619 115.709 46.5798 115.586 46.9732C115.464 47.3663 115.264 47.5629 114.986 47.5629C114.7 47.5629 114.483 47.488 114.334 47.3373C114.095 47.0978 113.977 46.6565 113.977 46.0142V45.3476ZM117.878 43.7859C117.444 44.235 117.226 44.8171 117.226 45.5311C117.226 46.1916 117.446 46.7256 117.889 47.1338C118.262 47.4814 118.676 47.6552 119.13 47.6552C119.675 47.6552 120.109 47.4916 120.435 47.1648C120.761 46.8383 120.923 46.4197 120.923 45.9093H120.842C120.842 46.4366 120.67 46.8539 120.322 47.1624C120.037 47.416 119.708 47.5425 119.334 47.5425C118.981 47.5425 118.718 47.3784 118.545 47.0499C118.372 46.722 118.286 46.1915 118.286 45.4599H120.904C120.904 44.5959 120.689 43.9735 120.262 43.5917C119.97 43.3334 119.603 43.2038 119.162 43.2038C118.687 43.2038 118.258 43.3975 117.878 43.7859H117.878ZM118.286 45.3377C118.286 44.6431 118.362 44.1308 118.512 43.8011C118.663 43.4711 118.924 43.3059 119.293 43.3059C119.555 43.3059 119.744 43.4797 119.861 43.8265C119.979 44.1738 120.037 44.6776 120.037 45.3377H118.286ZM122.064 47.3993C121.923 47.4474 121.647 47.4712 121.239 47.4712V47.5629H123.868V47.4712C123.785 47.4712 123.681 47.4642 123.551 47.4505C123.423 47.4369 123.334 47.4201 123.282 47.3989C123.231 47.3789 123.198 47.3578 123.184 47.3375C123.165 47.2964 123.154 47.2076 123.154 47.0708V45.7253L123.694 45.1741L124.652 47.0813C124.706 47.1905 124.733 47.2656 124.733 47.3064C124.733 47.3956 124.673 47.4457 124.55 47.4556C124.428 47.4665 124.255 47.4712 124.031 47.4712V47.5629H126.515V47.4712C126.258 47.4712 126.073 47.449 125.961 47.4043C125.848 47.36 125.756 47.2622 125.68 47.1119L124.376 44.5062L125.007 43.8807C125.26 43.6482 125.458 43.4943 125.604 43.4187C125.75 43.3436 125.952 43.3059 126.211 43.3059V43.2038H123.878V43.3059C124.17 43.3059 124.388 43.342 124.529 43.4143C124.673 43.486 124.743 43.5873 124.743 43.7182C124.743 43.8764 124.641 44.0548 124.438 44.2538L123.154 45.5418V40.8969L121.25 41.0704V41.1625C121.657 41.1625 121.915 41.1797 122.024 41.2133C122.057 41.2204 122.094 41.2528 122.136 41.3112C122.177 41.3688 122.197 41.4659 122.197 41.6033V47.0717C122.197 47.2358 122.177 47.3348 122.136 47.3688L122.064 47.3993H122.064ZM128.432 41.8771C128.54 41.768 128.593 41.6321 128.593 41.4684C128.593 41.3051 128.54 41.1692 128.432 41.0601C128.325 40.9512 128.19 40.8968 128.028 40.8968C127.867 40.8968 127.732 40.9512 127.624 41.0601C127.517 41.1692 127.463 41.3052 127.463 41.4684C127.463 41.632 127.517 41.7678 127.624 41.8771C127.732 41.986 127.867 42.0404 128.028 42.0404C128.189 42.0404 128.325 41.986 128.432 41.8771ZM128.563 43.2038L126.598 43.3674V43.459C127.032 43.459 127.31 43.4763 127.433 43.5103C127.473 43.5244 127.517 43.5655 127.565 43.6341C127.592 43.6684 127.605 43.7503 127.605 43.8811V47.07C127.605 47.2344 127.586 47.3343 127.545 47.3684C127.429 47.409 127.291 47.4369 127.133 47.4505C126.973 47.4642 126.794 47.4712 126.598 47.4712V47.5629H129.572V47.4712C129.124 47.4712 128.828 47.4469 128.686 47.3993C128.637 47.3789 128.607 47.3586 128.593 47.3378C128.574 47.297 128.563 47.2077 128.563 47.0708V43.2038H128.563ZM133.31 43.5205V43.6126H134.125V46.5114C134.125 46.879 134.219 47.1616 134.41 47.3589C134.6 47.5566 134.899 47.6552 135.307 47.6552C135.734 47.6552 136.022 47.532 136.172 47.2873C136.281 47.1103 136.335 46.7839 136.335 46.3071C136.328 46.1645 136.325 46.0145 136.325 45.858V45.389H136.203V45.876C136.203 46.4453 136.172 46.8308 136.113 47.0344C136.026 47.3327 135.846 47.4814 135.573 47.4814C135.339 47.4814 135.188 47.3522 135.122 47.0939C135.096 46.9858 135.082 46.7481 135.082 46.3814V43.6126H136.253V43.3163H135.082V41.1625H134.909C134.909 41.6749 134.796 42.1364 134.568 42.5467C134.287 43.0592 133.867 43.3837 133.31 43.5207L133.31 43.5205ZM137.148 45.6821C136.864 45.9342 136.722 46.2443 136.722 46.6123C136.722 46.9866 136.868 47.2664 137.161 47.4501C137.371 47.5867 137.618 47.6552 137.903 47.6552C138.188 47.6552 138.416 47.6212 138.587 47.5534C138.872 47.4391 139.086 47.2164 139.227 46.8856C139.282 47.176 139.396 47.3815 139.566 47.5029C139.71 47.6043 139.927 47.6552 140.221 47.6552C140.597 47.6552 140.846 47.5699 140.969 47.3993C141.065 47.2634 141.112 46.998 141.112 46.6034C141.106 46.4741 141.103 46.3384 141.103 46.1951V45.746H140.98V45.8371C140.98 45.9384 140.982 46.0368 140.986 46.1315C140.989 46.2258 140.99 46.321 140.99 46.4153C140.99 46.7605 140.96 47.0244 140.899 47.2073C140.837 47.3897 140.718 47.4813 140.542 47.4813C140.345 47.4813 140.222 47.3658 140.175 47.1348C140.155 47.0401 140.145 46.7883 140.145 46.3813V44.1307C140.145 43.8727 140.03 43.6585 139.798 43.4895C139.54 43.2989 139.16 43.2037 138.657 43.2037C138.379 43.2037 138.104 43.2482 137.833 43.3364C137.453 43.4589 137.214 43.6531 137.119 43.9181C137.079 44.041 137.059 44.1503 137.059 44.245C137.059 44.4424 137.158 44.606 137.356 44.7347C137.425 44.7829 137.504 44.8067 137.593 44.8067C137.731 44.8067 137.851 44.7589 137.953 44.6638C138.056 44.568 138.107 44.4458 138.107 44.2962C138.107 44.1666 138.067 44.0507 137.986 43.949C137.903 43.8468 137.798 43.7956 137.669 43.7956C137.629 43.7956 137.594 43.7996 137.568 43.8061C137.622 43.6531 137.738 43.5317 137.913 43.4413C138.089 43.3513 138.294 43.3058 138.527 43.3058C138.814 43.3058 139.001 43.3539 139.088 43.4499C139.174 43.5455 139.218 43.7299 139.218 44.0035V44.5984C139.218 44.8572 139.146 45.024 139.004 45.0991C138.862 45.1739 138.589 45.2292 138.183 45.2627C137.778 45.2968 137.432 45.4365 137.148 45.682L137.148 45.6821ZM137.689 46.5372C137.689 46.1676 137.757 45.8807 137.893 45.6759C138.009 45.5044 138.165 45.3953 138.362 45.3474C138.511 45.3267 138.667 45.3048 138.825 45.2801C138.985 45.2566 139.106 45.1898 139.187 45.0809V46.4453C139.187 46.7525 139.084 47.0145 138.876 47.2302C138.669 47.4455 138.436 47.5528 138.179 47.5528C138.009 47.5528 137.885 47.4827 137.807 47.3429C137.73 47.2024 137.689 46.9339 137.689 46.5373V46.5372Z" fill="white"/>
</svg>
