<svg width="109" height="44" viewBox="0 0 109 44" fill="none" xmlns="http://www.w3.org/2000/svg">
<mask id="mask0_1769_19462" style="mask-type:alpha" maskUnits="userSpaceOnUse" x="0" y="0" width="109" height="44">
<rect width="108.842" height="44" fill="white"/>
</mask>
<g mask="url(#mask0_1769_19462)">
<path d="M107.486 39.279V39.2118C107.391 39.2118 107.292 39.2066 107.187 39.1966C107.083 39.1868 107.01 39.1743 106.97 39.159C106.93 39.1446 106.906 39.1294 106.896 39.1145C106.881 39.0843 106.874 39.0195 106.874 38.9193V36.9307C106.874 36.7105 106.796 36.5204 106.642 36.3603C106.457 36.1699 106.209 36.0749 105.895 36.0749C105.85 36.0749 105.751 36.0837 105.596 36.101C105.442 36.1185 105.295 36.2417 105.156 36.4701C105.055 36.6346 104.991 36.8235 104.96 37.0371V36.0822L103.61 36.2022V36.2694C103.938 36.2694 104.127 36.2869 104.176 36.3222L104.222 36.3974C104.241 36.4227 104.252 36.4574 104.255 36.5028C104.257 36.5479 104.259 36.5928 104.259 36.6383V38.918C104.259 39.0389 104.244 39.1115 104.214 39.1366C104.129 39.1667 104.034 39.1868 103.927 39.1965C103.82 39.2065 103.712 39.2117 103.602 39.2117V39.2789H105.513V39.2117C105.44 39.2117 105.354 39.2065 105.256 39.1965C105.159 39.1867 105.092 39.1742 105.055 39.1589C105.017 39.1439 104.994 39.1291 104.984 39.1138C104.969 39.0839 104.96 39.0184 104.96 38.918V37.4436C105.006 37.0877 105.083 36.802 105.193 36.5861C105.337 36.3004 105.523 36.1571 105.753 36.1571C105.927 36.1571 106.047 36.26 106.112 36.4657C106.151 36.5912 106.171 36.7738 106.171 37.0146V38.9179C106.171 39.0388 106.156 39.1114 106.127 39.1365C106.047 39.1666 105.955 39.1867 105.85 39.1964C105.746 39.2064 105.653 39.2116 105.574 39.2116V39.2787H107.486V39.279ZM106.849 29.5788C107.274 28.8884 107.486 27.6128 107.486 25.7531C107.46 25.1947 107.447 24.6111 107.447 23.9994V22.166H106.968V24.0696C106.968 26.2911 106.851 27.7979 106.617 28.5912C106.278 29.7541 105.576 30.3358 104.509 30.3358C103.597 30.3358 103.011 29.8331 102.75 28.8255C102.646 28.4021 102.595 27.4739 102.595 26.0431V15.2319H107.168V14.0759H102.595V5.66703H101.919C101.919 7.66829 101.475 9.46997 100.59 11.071C99.4887 13.0723 97.8504 14.3394 95.6757 14.8732V15.2321H98.8571V26.55C98.8571 27.9848 99.2277 29.0875 99.9705 29.858C100.712 30.6288 101.878 31.0138 103.47 31.0138C105.139 31.0138 106.266 30.5355 106.849 29.5789V29.5788ZM96.1994 36.0823C95.9455 36.0823 95.7293 36.1737 95.5526 36.3559C95.3759 36.5376 95.288 36.7587 95.288 37.0182C95.288 37.3075 95.3928 37.5399 95.603 37.7144C95.778 37.8591 96.0235 37.9639 96.3418 38.0287C96.6592 38.094 96.8803 38.1685 97.0047 38.2535C97.1654 38.3632 97.2453 38.5305 97.2453 38.7547C97.2453 38.9295 97.1846 39.0644 97.0654 39.1589C96.9655 39.2389 96.8371 39.2789 96.6825 39.2789C96.4774 39.2789 96.3239 39.265 96.2208 39.2378C96.1185 39.2105 96.0094 39.1416 95.8954 39.032C95.8095 38.9522 95.7296 38.8299 95.6547 38.6648C95.6003 38.5454 95.5296 38.331 95.4445 38.0213H95.3929V39.3467C95.4021 39.3364 95.5072 39.2141 95.7063 38.9796C95.8709 39.1492 96.0225 39.2563 96.162 39.3014C96.2559 39.3315 96.4138 39.3467 96.6329 39.3467C96.8967 39.3467 97.1158 39.2841 97.2897 39.159C97.5091 39.0049 97.6181 38.7651 97.6181 38.4408C97.6181 38.0914 97.517 37.8371 97.3128 37.6771C97.1693 37.5625 96.9187 37.4623 96.5612 37.3777C96.2042 37.2927 95.966 37.2155 95.8466 37.1454C95.679 37.0458 95.5942 36.9057 95.5942 36.7263C95.5942 36.5067 95.671 36.3497 95.8253 36.2545C95.9408 36.1845 96.0871 36.1497 96.2659 36.1497C96.5005 36.1497 96.7147 36.2522 96.9087 36.4566C97.0886 36.6467 97.213 36.891 97.2825 37.1904L97.3424 37.205V36.0822C97.332 36.0922 97.2301 36.1698 97.0361 36.3145C97.0057 36.3095 96.8966 36.2642 96.7076 36.1795C96.5633 36.1149 96.3934 36.0822 96.1994 36.0822V36.0823ZM85.1381 30.6548H95.397V30.2962C94.8402 30.2962 94.2833 30.2701 93.7277 30.2164C93.1708 30.163 92.7858 30.0964 92.5735 30.0166C92.3613 29.9371 92.2289 29.8567 92.1764 29.7769C92.0965 29.6172 92.057 29.2713 92.057 28.7385V18.1516C92.057 16.9536 91.6852 15.9415 90.9436 15.116C90.0149 14.104 88.6234 13.5976 86.768 13.5976C86.6617 13.5976 86.483 13.6114 86.2314 13.6375C85.9788 13.6642 85.7473 13.6777 85.535 13.6777C84.4749 13.7842 83.5606 14.4483 82.7914 15.6703C82.181 16.6532 81.7971 17.6764 81.6385 18.7386V4.63086L74.0028 5.30803V5.66692C75.6471 5.66692 76.7069 5.73409 77.1838 5.86764C77.3437 5.92101 77.5156 6.08125 77.7015 6.34765C77.8074 6.48143 77.867 6.66835 77.8802 6.90887C77.8934 7.14916 77.9006 7.44226 77.9006 7.78964V28.7345C77.9006 29.3752 77.8206 29.7625 77.6619 29.896C77.2102 30.0565 76.6737 30.163 76.0512 30.2164C75.4276 30.2701 74.7324 30.2962 73.9633 30.2962V30.6548H84.5812V30.2962C84.183 30.2962 83.7261 30.2701 83.2089 30.2164C82.6924 30.163 82.3337 30.0964 82.1357 30.0158C81.9366 29.9363 81.8103 29.8561 81.7576 29.7757C81.6777 29.6155 81.6385 29.269 81.6385 28.7345V20.7246C81.8768 18.9625 82.3276 17.4672 82.9905 16.2388C83.7857 14.7703 84.7398 14.036 85.8533 14.036C86.8872 14.036 87.5894 14.4772 87.9613 15.3574C88.1999 15.9187 88.3191 16.7727 88.3191 17.9214V28.7346C88.3191 29.3753 88.2392 29.7626 88.0805 29.8962C87.6564 30.0566 87.1662 30.1631 86.6093 30.2165C86.0524 30.2702 85.5614 30.2963 85.1381 30.2963V30.6549V30.6548ZM76.8373 34.4502H73.9625V34.5177C74.3506 34.5177 74.6245 34.5479 74.7841 34.6076C74.8335 34.6277 74.8628 34.6481 74.8728 34.6679C74.8931 34.7078 74.9032 34.7978 74.9032 34.9377V37.9142C74.9032 38.374 75.1127 38.7339 75.5309 38.9942C75.9087 39.2293 76.3796 39.3467 76.9425 39.3467C77.2418 39.3467 77.5276 39.2511 77.8015 39.0613C78.1945 38.7865 78.3915 38.3792 78.3915 37.8393V35.59C78.3915 35.2352 78.436 34.9829 78.5259 34.8327C78.6502 34.6225 78.9 34.5177 79.2727 34.5177V34.4502H77.2637V34.5177C77.6267 34.5177 77.8883 34.6165 78.0481 34.8135C78.2077 35.0107 78.2865 35.3664 78.2865 35.8802V37.8341C78.2865 38.3132 78.1149 38.6827 77.7711 38.9422C77.5276 39.1268 77.2759 39.2192 77.0172 39.2192C76.5494 39.2192 76.2252 39.0894 76.0462 38.8299C75.8967 38.6151 75.8219 38.2583 75.8219 37.7593V34.9371C75.8219 34.8022 75.834 34.7124 75.8595 34.6673C75.8695 34.6475 75.9067 34.6251 75.9714 34.6001C76.0362 34.5751 76.1393 34.555 76.2817 34.5404C76.4231 34.5252 76.6092 34.5177 76.8374 34.5177V34.4502H76.8373ZM57.8989 26.6298C57.8989 25.7264 58.2779 25.0752 59.0378 24.6771C59.615 24.3846 60.3618 24.2382 61.2781 24.2382C62.3654 24.6636 63.5184 24.8761 64.7381 24.8761C66.4611 24.8761 68.0122 24.4116 69.3907 23.4812C70.9278 22.4451 71.6969 21.1171 71.6969 19.4959C71.6969 18.4067 71.3987 17.4505 70.8025 16.6265C70.2061 15.8032 69.3907 15.1389 68.3568 14.6336C68.3568 14.3695 68.3428 13.9587 68.3175 13.4023C68.3175 12.7394 68.4023 12.2167 68.5751 11.8325C68.7481 11.4481 69.0988 11.2164 69.6293 11.137C69.5494 11.2719 69.4838 11.407 69.4302 11.5417C69.3767 11.6761 69.3514 11.8242 69.3514 11.9855C69.3514 12.8479 69.8012 13.2788 70.7034 13.2788C71.5773 13.2788 72.0151 12.8074 72.0151 11.864C72.0151 11.4331 71.8697 11.0831 71.5774 10.8136C71.2856 10.5446 70.9418 10.4094 70.5436 10.4094C69.6425 10.4094 68.9733 10.6023 68.5358 10.9873C68.0981 11.3725 67.8798 12.1896 67.8798 13.4381V14.3947C67.4021 14.1822 66.8856 14.0097 66.3287 13.8765C65.7718 13.7438 65.2414 13.6775 64.7381 13.6775C63.0415 13.6775 61.4904 14.2221 60.0855 15.3113C58.5476 16.5067 57.7786 17.955 57.7786 19.6551C57.7786 20.6654 58.0182 21.5151 58.495 22.2061C58.972 22.8971 59.6339 23.4549 60.4827 23.8797C59.2629 23.8797 58.322 24.238 57.6591 24.9557C56.9963 25.6731 56.6657 26.5898 56.6657 27.7057C56.6657 28.7688 57.0499 29.6323 57.819 30.296C58.3755 30.7743 59.2365 31.2259 60.4039 31.651C59.1043 32.0228 58.1504 32.3813 57.5399 32.727C56.6657 33.2314 56.2282 33.8558 56.2282 34.6004C56.2282 35.7419 57.0235 36.7585 58.6141 37.6489C60.2048 38.5385 62.338 38.9842 65.0157 38.9842C67.2692 38.9842 69.0926 38.4522 70.4838 37.3898C71.8754 36.3267 72.5717 34.8123 72.5717 32.8467C72.5717 30.9865 71.8046 29.6584 70.2715 28.8612C69.0549 28.2236 67.2703 27.9047 64.9177 27.9047H62.6169C60.7664 27.9047 59.5246 27.7853 58.8899 27.5464C58.229 27.3339 57.8984 27.0279 57.8984 26.6297L57.8989 26.6298ZM65.2367 31.4918C67.4022 31.4918 68.8874 31.7183 69.693 32.173C70.4985 32.6266 70.9016 33.495 70.9016 34.7777C70.9016 35.8462 70.4086 36.7549 69.4212 37.5035C68.4329 38.2511 67.0445 38.6255 65.2539 38.6255C62.6729 38.6255 60.8943 38.2 59.9202 37.3503C59.2878 36.7922 58.9723 35.9554 58.9723 34.8395C58.9723 33.6699 59.3562 32.8468 60.1253 32.3683C61.0499 31.7839 62.7537 31.4918 65.2368 31.4918H65.2367ZM61.3581 19.2967C61.3581 17.6641 61.6268 16.3788 62.1636 15.4415C62.7 14.5053 63.5589 14.036 64.7382 14.036C66.0218 14.036 66.9261 14.5318 67.4506 15.5219C67.8952 16.3519 68.1187 17.6104 68.1187 19.2968C68.1187 21.091 67.856 22.4099 67.3324 23.2531C66.8079 24.096 65.944 24.5177 64.7382 24.5177C63.4013 24.5177 62.5039 24.1167 62.0461 23.3131C61.5875 22.5101 61.358 21.1715 61.358 19.2969L61.3581 19.2967ZM43.9012 30.6548H55.5131V30.2962C53.7629 30.2962 52.61 30.2029 52.0531 30.0158C51.8672 29.9363 51.748 29.8561 51.6953 29.7757C51.6157 29.6155 51.5761 29.269 51.5761 28.7345V13.6375L43.9012 14.2755V14.6338C45.5978 14.6338 46.6852 14.7013 47.1621 14.8344C47.3208 14.8878 47.4936 15.0489 47.6795 15.3167C47.7847 15.4511 47.8382 15.7723 47.8382 16.2804V28.7302C47.8382 29.3724 47.7583 29.7614 47.5996 29.8949C47.149 30.0553 46.6113 30.1622 45.9889 30.2162C45.3653 30.2695 44.67 30.2962 43.9013 30.2962V30.6548H43.9012ZM52.8737 8.36812C52.8737 8.35236 52.8777 8.3366 52.8797 8.32072C52.8797 8.23514 52.8797 8.14933 52.8797 8.06375C52.8757 8.02038 52.8716 7.97679 52.8685 7.93342C52.8333 7.45054 52.6987 6.99641 52.4684 6.57149C52.2693 6.2026 52.0096 5.88075 51.6904 5.60837C51.2091 5.19818 50.6586 4.93948 50.035 4.83699C49.9179 4.8172 49.7975 4.8103 49.6783 4.79765C49.6592 4.79535 49.64 4.79305 49.6207 4.79075C49.5348 4.79075 49.45 4.79075 49.3641 4.79075C49.2862 4.79731 49.2083 4.80283 49.1306 4.81168C48.5617 4.87253 48.0393 5.06406 47.5692 5.39154C46.9307 5.83681 46.491 6.43312 46.2534 7.17631C46.1655 7.45042 46.1171 7.73236 46.1039 8.01947C46.1031 8.03442 46.0999 8.04926 46.098 8.06363C46.098 8.14921 46.098 8.23503 46.098 8.32061C46.1031 8.37087 46.1072 8.42137 46.1112 8.47164C46.1504 8.94797 46.2839 9.39658 46.5142 9.81459C46.8731 10.4639 47.3873 10.9489 48.0573 11.2667C48.4586 11.4565 48.8808 11.5598 49.3238 11.5813C49.3366 11.5819 49.351 11.585 49.3642 11.5867C49.4501 11.5867 49.5349 11.5867 49.6208 11.5867C49.6944 11.5804 49.7692 11.5744 49.8439 11.5663C50.2341 11.5262 50.6051 11.4203 50.9577 11.2491C51.3143 11.0771 51.6317 10.8493 51.9076 10.5658C52.3482 10.1134 52.6431 9.5797 52.7887 8.96361C52.8355 8.76749 52.8635 8.56918 52.8738 8.36789L52.8737 8.36812ZM50.4363 5.20335C50.4302 5.21164 50.425 5.22118 50.4179 5.22774C50.3978 5.24753 50.3735 5.25304 50.3552 5.22854C50.3312 5.19818 50.322 5.21071 50.31 5.23775C50.2927 5.27536 50.2624 5.29802 50.2241 5.31413C50.2097 5.31988 50.1969 5.33242 50.1865 5.34507C50.1714 5.36485 50.1553 5.38613 50.1461 5.40937C50.1178 5.47827 50.0666 5.50668 49.9946 5.51243C49.9714 5.51439 49.9451 5.53107 49.929 5.5489C49.8583 5.62838 49.7915 5.71109 49.7239 5.79264C49.6936 5.8291 49.6904 5.82968 49.6512 5.80184C49.5765 5.74928 49.5449 5.67037 49.5217 5.58686C49.5025 5.51508 49.4953 5.44503 49.5338 5.37532C49.551 5.34288 49.5612 5.30699 49.5744 5.27225C49.5825 5.24959 49.5784 5.23211 49.5489 5.23269C49.5185 5.23349 49.4873 5.23521 49.457 5.23694C49.4673 5.26305 49.4753 5.29066 49.4874 5.31528C49.5046 5.34656 49.5037 5.36669 49.4713 5.38901C49.4238 5.42202 49.3814 5.46102 49.339 5.49955C49.3166 5.51933 49.3055 5.52279 49.2823 5.49783C49.2571 5.46999 49.2236 5.44065 49.1884 5.4326C49.1508 5.4234 49.1076 5.43801 49.0661 5.44376C49.0541 5.44526 49.0418 5.45239 49.0297 5.45434C48.9985 5.45872 48.9682 5.46067 48.9458 5.42961C48.9298 5.40695 48.9086 5.41466 48.8902 5.42708C48.8478 5.45756 48.8055 5.48943 48.7631 5.52129C48.7548 5.52624 48.7467 5.5313 48.7399 5.53624C48.6712 5.58018 48.6437 5.65196 48.6651 5.73087C48.678 5.77504 48.7104 5.79264 48.7528 5.77389C48.8235 5.74341 48.8913 5.71017 48.9246 5.63264C48.9277 5.62516 48.9519 5.6186 48.9601 5.62286C49.0126 5.65265 49.0521 5.63114 49.0905 5.59583C49.1125 5.57627 49.1368 5.55879 49.1632 5.54556C49.1905 5.53176 49.2137 5.54268 49.234 5.56535C49.256 5.59111 49.2813 5.61527 49.3076 5.63735C49.3431 5.66749 49.3499 5.69107 49.3279 5.73386C49.3147 5.75917 49.2984 5.78298 49.2855 5.80852C49.2804 5.81772 49.2823 5.83037 49.2813 5.8413C49.2916 5.84153 49.3028 5.8436 49.3116 5.84153C49.354 5.83325 49.3563 5.83324 49.3471 5.87511C49.3367 5.92216 49.3279 5.97093 49.3076 6.01407C49.2744 6.08757 49.2096 6.10252 49.142 6.05916C49.0661 6.01039 49.0521 6.01407 48.9973 6.08872C48.9873 6.10333 48.9682 6.11713 48.9509 6.12001C48.9002 6.12864 48.849 6.13692 48.7974 6.13577C48.7115 6.1337 48.6347 6.1628 48.558 6.19351C48.5245 6.20755 48.4913 6.22572 48.4569 6.23745C48.4385 6.24378 48.4153 6.24804 48.4001 6.24113C48.3697 6.22768 48.3526 6.24263 48.3325 6.25804C48.2486 6.32292 48.1566 6.37284 48.0566 6.40655C48.0355 6.41402 48.0251 6.42483 48.0223 6.44761C48.0102 6.53549 47.9959 6.62337 47.9807 6.71114C47.9787 6.72345 47.9675 6.74185 47.9587 6.74392C47.9455 6.7468 47.9223 6.74047 47.9171 6.73046C47.896 6.69285 47.8736 6.65385 47.8636 6.61221C47.8372 6.49489 47.7716 6.43507 47.6505 6.4368C47.4786 6.4391 47.3471 6.52065 47.2523 6.65811C47.2139 6.7147 47.2076 6.78671 47.2228 6.85561C47.234 6.90876 47.2775 6.9351 47.3359 6.92912C47.3573 6.92716 47.3795 6.92314 47.4006 6.91876C47.4351 6.91106 47.4583 6.92509 47.4754 6.95408C47.4918 6.98283 47.4813 7.00952 47.4614 7.03011C47.4382 7.05254 47.4119 7.0714 47.3866 7.09153C47.3462 7.12432 47.3462 7.15779 47.3906 7.18459C47.4158 7.19978 47.4209 7.2168 47.419 7.24406C47.4138 7.29893 47.413 7.35426 47.413 7.4097C47.4138 7.46135 47.4383 7.50046 47.4807 7.52795C47.5079 7.54544 47.5351 7.56384 47.5646 7.57707C47.6465 7.61411 47.7081 7.5949 47.7597 7.52139C47.8141 7.44214 47.8537 7.44157 47.9333 7.49666C47.9889 7.53577 48.0536 7.56557 48.1184 7.588C48.2023 7.61675 48.2771 7.65437 48.3335 7.72465C48.3479 7.74121 48.3699 7.75272 48.3911 7.76111C48.5154 7.81104 48.6245 7.88166 48.7056 7.99025C48.7207 8.0098 48.7379 8.02901 48.7448 8.05167C48.7803 8.16854 48.8683 8.25573 48.9219 8.36259C48.9279 8.37432 48.9451 8.38468 48.9591 8.38778C49.0783 8.4139 49.1906 8.45703 49.2856 8.53651C49.3713 8.60772 49.3836 8.65051 49.3533 8.75725C49.332 8.82845 49.2925 8.887 49.2329 8.9306C49.2057 8.95073 49.1885 8.97569 49.1785 9.00721C49.1613 9.0554 49.141 9.10222 49.1249 9.15053C49.0925 9.2521 49.0258 9.33389 48.957 9.41038C48.9218 9.4511 48.859 9.47698 48.8035 9.48986C48.7267 9.50815 48.6712 9.54439 48.6297 9.61133C48.5933 9.67103 48.5478 9.72556 48.5126 9.78618C48.4631 9.86969 48.3995 9.93456 48.3175 9.98679C48.2456 10.0325 48.1812 10.0893 48.1172 10.1455C48.0921 10.168 48.074 10.201 48.0557 10.2308C48.0405 10.2543 48.0344 10.2828 48.0204 10.306C47.9809 10.3678 47.98 10.4317 47.9961 10.5015C48.0145 10.575 48.0252 10.6505 48.0396 10.7257C48.0456 10.7559 48.0365 10.7653 48.0072 10.7536C47.9748 10.7403 47.9436 10.7242 47.9162 10.7039C47.8173 10.6309 47.7435 10.5339 47.6879 10.4254C47.6687 10.387 47.6699 10.3381 47.6626 10.2936C47.6515 10.2281 47.6444 10.1627 47.6211 10.0984C47.6039 10.0506 47.6079 9.99415 47.6103 9.94158C47.6122 9.89338 47.6223 9.84542 47.6303 9.79745C47.6383 9.74787 47.6395 9.70129 47.6251 9.64906C47.6122 9.5965 47.6251 9.53565 47.6323 9.47905C47.6444 9.38369 47.6615 9.2896 47.6747 9.19516C47.6768 9.18481 47.6727 9.1702 47.6667 9.16388C47.6011 9.10303 47.5939 9.02688 47.6142 8.94659C47.6211 8.91611 47.613 8.90184 47.5887 8.88482C47.4676 8.79981 47.3827 8.68156 47.3039 8.55894C47.2928 8.54146 47.2875 8.51823 47.2848 8.4966C47.2765 8.44438 47.2716 8.39215 47.2656 8.34016C47.2533 8.23859 47.2624 8.14209 47.3292 8.05743C47.3685 8.00693 47.404 7.95206 47.4413 7.89926C47.4828 7.84014 47.5032 7.77354 47.502 7.70095C47.5012 7.66334 47.4869 7.63147 47.4545 7.60939C47.4453 7.60283 47.4372 7.59386 47.4273 7.58903C47.3534 7.55142 47.317 7.48999 47.3101 7.40959C47.3042 7.35276 47.2766 7.30997 47.2293 7.28007C47.1969 7.25856 47.1938 7.23037 47.1998 7.19598C47.2121 7.12685 47.2109 7.12742 47.1494 7.09671C47.0838 7.06427 47.0219 7.02608 46.9775 6.96581C46.9503 6.92969 46.9359 6.8892 46.9411 6.84319C46.9451 6.79937 46.9491 6.75542 46.9563 6.71229C46.9683 6.64626 46.9491 6.59001 46.9107 6.53745C46.8654 6.47522 46.8654 6.47464 46.9078 6.4123C47.2997 5.84878 47.8173 5.45112 48.4639 5.22118C48.7812 5.10834 49.1166 5.05244 49.4847 5.04807C49.801 5.04922 50.1093 5.09431 50.4114 5.18817C50.4202 5.1907 50.4274 5.19795 50.4366 5.20312L50.4363 5.20335ZM52.6231 8.15853C52.6158 8.86791 52.4199 9.48227 52.0238 10.0312C51.7884 10.3576 51.4993 10.6274 51.1599 10.8439C51.1579 10.845 51.1556 10.8467 51.1536 10.8477C51.1455 10.8505 51.1375 10.8534 51.1295 10.8565C51.1344 10.849 51.1394 10.8416 51.1435 10.8339C51.1617 10.8012 51.1858 10.7699 51.1971 10.7346C51.2042 10.7119 51.199 10.6775 51.185 10.6574C51.1626 10.6229 51.1598 10.591 51.175 10.5563C51.2114 10.4705 51.2498 10.3849 51.287 10.2997C51.3021 10.2666 51.3163 10.2339 51.3326 10.2023C51.3558 10.1567 51.3578 10.1096 51.3466 10.0611C51.3374 10.0227 51.3294 9.98414 51.3226 9.94538C51.3011 9.82368 51.3598 9.72855 51.4274 9.63756C51.4489 9.6103 51.475 9.58707 51.4983 9.56118C51.5721 9.47825 51.6014 9.38485 51.561 9.27637C51.5498 9.24762 51.5418 9.2169 51.5297 9.18826C51.4973 9.10763 51.5025 9.02838 51.5345 8.94889C51.5468 8.9176 51.5558 8.88539 51.569 8.85468C51.5993 8.7844 51.5974 8.71343 51.5793 8.64108C51.5721 8.61117 51.557 8.60634 51.5306 8.61634C51.5186 8.6221 51.5054 8.6313 51.4922 8.63072C51.4749 8.63049 51.451 8.62842 51.4398 8.61692C51.4103 8.58368 51.3731 8.57125 51.3327 8.57068C51.2579 8.56895 51.182 8.56608 51.1083 8.5739C50.9932 8.5854 50.891 8.55492 50.803 8.48636C50.6951 8.40228 50.5939 8.30956 50.4928 8.21651C50.4736 8.19925 50.4667 8.16313 50.4644 8.13415C50.4524 8.00693 50.4827 7.88465 50.5119 7.76203C50.5292 7.6868 50.5415 7.61077 50.5556 7.53497C50.5575 7.52369 50.5575 7.51001 50.5524 7.5008C50.5292 7.46066 50.5455 7.42558 50.5635 7.39026C50.6059 7.30698 50.6706 7.24843 50.7597 7.22094C50.7969 7.20944 50.8274 7.1908 50.8477 7.15894C50.9021 7.07336 50.9789 7.02896 51.0769 7.0025C51.2155 6.96408 51.3507 6.95741 51.4874 7.004C51.5073 7.01148 51.5306 7.01148 51.5518 7.01297C51.5984 7.01642 51.6449 7.01412 51.6892 7.02413C51.7276 7.03276 51.766 7.04989 51.7983 7.07233C51.8661 7.11972 51.9298 7.17424 51.9965 7.22278C52.0145 7.23601 52.0398 7.24349 52.062 7.24544C52.1287 7.25177 52.1956 7.25269 52.2619 7.25775C52.2843 7.25925 52.2874 7.25119 52.2855 7.23244C52.2732 7.12167 52.1904 7.0369 52.0793 7.02436C52.0156 7.01723 51.9902 6.99388 51.9721 6.92935C51.9689 6.91761 51.9629 6.90634 51.9589 6.89484C51.9497 6.90312 51.9409 6.91152 51.9317 6.91899C51.9145 6.93337 51.8974 6.94706 51.8802 6.96086C51.8669 6.94188 51.8509 6.92417 51.8397 6.90381C51.8286 6.88403 51.8234 6.86102 51.8146 6.83951C51.8054 6.81823 51.7922 6.8142 51.7761 6.83318C51.769 6.84215 51.7619 6.85469 51.7527 6.85814C51.7315 6.86643 51.7075 6.87793 51.6871 6.8739C51.6607 6.8685 51.6427 6.84664 51.6408 6.81535C51.6396 6.78924 51.6377 6.76279 51.6336 6.73667C51.6308 6.71574 51.6204 6.71022 51.6004 6.7223C51.5893 6.72862 51.5709 6.73035 51.56 6.72609C51.5054 6.70309 51.4518 6.67904 51.4002 6.65178C51.3802 6.64086 51.3762 6.64603 51.3738 6.66329C51.3658 6.71781 51.3569 6.77233 51.3506 6.82755C51.3486 6.85596 51.3397 6.87264 51.3102 6.87724C51.2849 6.88069 51.2598 6.88644 51.2366 6.89472C51.1235 6.93268 51.0476 6.89185 50.9828 6.79626C50.9464 6.74277 50.9192 6.68376 50.886 6.62774C50.8749 6.60738 50.8809 6.5968 50.8989 6.58645C50.9667 6.54768 51.0375 6.52272 51.1183 6.52215C51.1819 6.5218 51.2295 6.47648 51.273 6.43346C51.295 6.41103 51.3134 6.38319 51.3306 6.35593C51.3366 6.3465 51.3398 6.3281 51.3346 6.31889C51.3074 6.26725 51.3011 6.2141 51.3155 6.15808C51.3226 6.13025 51.3155 6.11219 51.2819 6.11449C51.2779 6.11449 51.2731 6.11196 51.2691 6.11219C51.2032 6.11426 51.1568 6.08918 51.1324 6.02465C51.1224 5.99589 51.092 5.99394 51.068 5.99475C51.0021 5.99682 50.9678 5.95713 50.9589 5.90088C50.9477 5.83083 50.9467 5.75882 50.9446 5.68762C50.9438 5.67899 50.9609 5.66404 50.9718 5.66209C51.0061 5.65518 51.0406 5.65265 51.0749 5.65001C51.1236 5.64656 51.1517 5.62217 51.16 5.57455C51.1649 5.54614 51.174 5.54407 51.1983 5.56017C51.6721 5.87362 52.0379 6.28301 52.2937 6.792C52.4685 7.14054 52.5716 7.50943 52.608 7.89753C52.6172 7.99508 52.6201 8.09331 52.6232 8.15876L52.6231 8.15853ZM43.5039 16.7463C43.5039 16.3475 43.4039 15.8962 43.2057 15.3913C43.0066 14.8866 42.6157 14.4683 42.0327 14.1356C41.4486 13.8038 40.9049 13.6375 40.4017 13.6375C39.0757 13.6375 37.9763 14.3024 37.1011 15.6305C36.4655 16.5871 36.0937 17.6099 35.9877 18.6991V13.6377L28.3136 14.2357V14.5946C30.0092 14.5946 31.0965 14.6617 31.5735 14.7946C31.7333 14.8483 31.9049 15.009 32.0909 15.2769C32.1972 15.4113 32.2496 15.7458 32.2496 16.2815V28.7305C32.2496 29.3727 32.1708 29.7617 32.0112 29.8951C31.5603 30.0556 31.0239 30.1624 30.4014 30.2164C29.7778 30.2698 29.0818 30.2964 28.3137 30.2964V30.655H39.9247V30.2964C38.1754 30.2964 37.0224 30.2032 36.4655 30.016C36.2796 29.9365 36.1604 29.8563 36.1069 29.7759C36.0281 29.6157 35.9877 29.2692 35.9877 28.7347V21.2853C35.9877 19.0162 36.4898 17.1603 37.4932 15.7185C38.2581 14.5977 39.0244 14.0362 39.7892 14.0362C40.5815 14.0362 41.0565 14.3155 41.2152 14.8734C40.7331 14.7675 40.3117 14.9529 39.95 15.4312C39.5882 15.9095 39.4082 16.3877 39.4082 16.866C39.4082 17.6101 39.5953 18.1683 39.9703 18.54C40.345 18.9121 40.7999 19.0978 41.3355 19.0978C41.683 19.0978 41.9641 19.0448 42.1783 18.9383C43.0626 18.54 43.504 17.8095 43.504 16.7466L43.5039 16.7463ZM24.7401 19.6932C23.2597 18.2587 20.9335 17.3414 17.7616 16.943C20.7728 16.4916 22.8203 15.7212 23.9034 14.6322C24.7229 13.8349 25.1322 12.6399 25.1322 11.046C25.1322 9.74431 24.4563 8.48291 23.1042 7.26028C21.4076 5.72006 19.1277 4.9496 16.2648 4.9496H0.000114934V5.30814C2.5983 5.30814 4.28078 5.45515 5.05077 5.74801C5.34184 5.85533 5.51373 5.96162 5.56724 6.06813C5.67322 6.28174 5.72684 6.76141 5.72684 7.50702V28.0177C5.72684 28.7906 5.67322 29.2768 5.56724 29.4766C5.46103 29.6772 5.27513 29.8304 5.01035 29.9363C4.45347 30.1499 2.78408 30.2564 0 30.2564V30.6549H18.5314C20.9173 30.6549 22.9049 29.8975 24.4956 28.3828C25.874 27.0812 26.5641 25.6854 26.5641 24.1978C26.5641 22.3645 25.9556 20.8628 24.7399 19.6932H24.7401ZM14.3014 16.786H10.6181V7.51553C10.6181 6.73978 10.6505 6.2187 10.717 5.95092C10.7829 5.68302 10.9475 5.50933 11.2122 5.42904C11.4749 5.34898 11.8843 5.30814 12.44 5.30814H14.3397C16.4792 5.30814 17.9971 5.76342 18.8943 6.67272C19.7918 7.58247 20.2415 9.16112 20.2415 11.4084C20.2415 13.4154 19.6867 14.8471 18.5781 15.7025C17.6535 16.4248 16.2275 16.786 14.3015 16.786H14.3014ZM21.5136 24.22C21.5136 26.0854 21.0871 27.5383 20.2364 28.5778C19.3046 29.7235 17.8949 30.2962 16.0064 30.2962C14.1965 30.2962 13.0453 30.2833 12.5532 30.2563C12.0611 30.2302 11.6621 30.1567 11.3558 30.0364C11.0508 29.917 10.8505 29.7498 10.7577 29.5371C10.6646 29.3245 10.6182 28.8172 10.6182 28.0176V17.1447H15.3272C17.4028 17.1447 18.9723 17.7979 20.0365 19.1038C21.0207 20.3032 21.5136 22.0079 21.5136 24.2199V24.22ZM81.1262 36.6L79.288 39.2791H82.1187V37.6924H82.0589C81.9893 38.2588 81.8438 38.6701 81.6224 38.9259C81.462 39.1166 81.2669 39.2118 81.0354 39.2118H80.2826C80.1776 39.2118 80.1249 39.2018 80.1249 39.1817C80.1249 39.1667 80.2067 39.0393 80.3727 38.7993L82.2461 36.0823H79.6843V37.4449H79.7359C79.8258 36.8827 79.9712 36.5138 80.1755 36.3382C80.3139 36.2173 80.5594 36.1573 80.9112 36.1573H81.2082C81.3274 36.1573 81.387 36.17 81.387 36.195L81.1263 36.6H81.1262ZM82.1712 34.5853C82.4702 34.5853 82.6614 34.5979 82.7461 34.6225C82.7765 34.6325 82.8057 34.6578 82.836 34.6978C82.8665 34.7379 82.8807 34.8077 82.8807 34.9076V39.3467H82.9403L83.2617 38.7673C83.4263 39.0001 83.5819 39.1546 83.7283 39.2316C83.8759 39.308 84.1013 39.3467 84.4044 39.3467C84.7381 39.3467 85.0331 39.1857 85.2898 38.8636C85.5464 38.5418 85.6748 38.1537 85.6748 37.6992C85.6748 37.3452 85.5748 37.0082 85.3757 36.689C85.1219 36.2848 84.7712 36.0823 84.3227 36.0823C84.1236 36.0823 83.9506 36.1831 83.8031 36.3846C83.6567 36.5862 83.5827 36.8009 83.5827 37.0299V34.3905L82.1711 34.5177V34.5853H82.1712ZM83.5828 37.6544C83.5828 37.1675 83.6628 36.7867 83.8222 36.5109C83.9569 36.2753 84.1236 36.1572 84.3227 36.1572C84.5067 36.1572 84.6489 36.2753 84.7482 36.5109C84.8481 36.7466 84.8977 37.1451 84.8977 37.7069C84.8977 38.1783 84.8532 38.5581 84.7633 38.8466C84.6734 39.1348 84.5267 39.279 84.3227 39.279C84.1133 39.279 83.9538 39.2241 83.8446 39.1136C83.6699 38.9379 83.5828 38.6143 83.5828 38.1433V37.6544ZM86.4436 36.5092C86.1253 36.8385 85.9659 37.2654 85.9659 37.789C85.9659 38.2734 86.1274 38.6649 86.4519 38.9644C86.7257 39.2193 87.0287 39.3467 87.3622 39.3467C87.7615 39.3467 88.0797 39.2267 88.3192 38.987C88.5578 38.7477 88.677 38.4406 88.677 38.0663H88.6174C88.6174 38.4531 88.4911 38.759 88.2364 38.9853C88.0274 39.1713 87.7855 39.264 87.5117 39.264C87.253 39.264 87.06 39.1437 86.9328 38.9028C86.8065 38.6623 86.7428 38.2733 86.7428 37.7368H88.6627C88.6627 37.1032 88.5051 36.6468 88.192 36.3668C87.9777 36.1774 87.7087 36.0823 87.3854 36.0823C87.0368 36.0823 86.7225 36.2244 86.4435 36.5092H86.4436ZM86.743 37.6472C86.743 37.1378 86.7985 36.7622 86.9085 36.5204C87.0197 36.2784 87.2107 36.1572 87.4817 36.1572C87.6737 36.1572 87.8121 36.2847 87.8979 36.539C87.9847 36.7937 88.0275 37.1631 88.0275 37.6472H86.743ZM89.5138 39.159C89.4098 39.1943 89.2076 39.2118 88.9085 39.2118V39.279H90.8367V39.2118C90.7759 39.2118 90.6991 39.2066 90.6041 39.1966C90.5101 39.1866 90.4446 39.1743 90.4069 39.1588C90.3697 39.144 90.3454 39.1286 90.3353 39.1137C90.3212 39.0835 90.313 39.0184 90.313 38.9181V37.9314L90.7091 37.5272L91.4115 38.9258C91.451 39.0059 91.4711 39.061 91.4711 39.0909C91.4711 39.1563 91.4266 39.193 91.3367 39.2003C91.2468 39.2083 91.1205 39.2118 90.9557 39.2118V39.279H92.7779V39.2118C92.5889 39.2118 92.4534 39.1955 92.3714 39.1627C92.2886 39.1302 92.2211 39.0585 92.1654 38.9483L91.2093 37.0374L91.6721 36.5787C91.8571 36.4082 92.0027 36.2954 92.1098 36.2399C92.217 36.1848 92.3645 36.1572 92.5544 36.1572V36.0823H90.8435V36.1572C91.0577 36.1572 91.2176 36.1837 91.3215 36.2367C91.4266 36.2893 91.4782 36.3636 91.4782 36.4595C91.4782 36.5756 91.4034 36.7064 91.2547 36.8523L90.3129 37.7968V34.3906L88.9164 34.5179V34.5854C89.2154 34.5854 89.4045 34.598 89.4844 34.6226C89.5085 34.6278 89.5358 34.6516 89.5661 34.6944C89.5965 34.7366 89.6107 34.8078 89.6107 34.9086V38.9188C89.6107 39.0391 89.5964 39.1117 89.5661 39.1367L89.5137 39.159H89.5138ZM94.1835 35.1094C94.2623 35.0294 94.3015 34.9298 94.3015 34.8097C94.3015 34.6899 94.2623 34.5903 94.1835 34.5103C94.1047 34.4304 94.0056 34.3905 93.8873 34.3905C93.769 34.3905 93.6701 34.4304 93.591 34.5103C93.5123 34.5903 93.473 34.69 93.473 34.8097C93.473 34.9296 93.5123 35.0293 93.591 35.1094C93.6701 35.1893 93.7689 35.2292 93.8873 35.2292C94.0055 35.2292 94.1047 35.1893 94.1835 35.1094ZM94.2795 36.0823L92.8384 36.2023V36.2695C93.1569 36.2695 93.3608 36.2822 93.4508 36.3071C93.48 36.3175 93.5124 36.3476 93.548 36.3979C93.5671 36.4231 93.5771 36.4831 93.5771 36.579V38.9176C93.5771 39.0381 93.5631 39.1114 93.5327 39.1363C93.448 39.1661 93.3468 39.1866 93.2305 39.1966C93.1134 39.2066 92.9819 39.2118 92.8384 39.2118V39.279H95.0192V39.2118C94.6909 39.2118 94.4735 39.194 94.3695 39.159C94.334 39.144 94.3119 39.1292 94.3017 39.1139C94.2876 39.084 94.2796 39.0186 94.2796 38.9181V36.0823H94.2795ZM97.7608 36.3146V36.3821H98.358V38.5079C98.358 38.7775 98.4275 38.9847 98.567 39.1294C98.7066 39.2744 98.926 39.3467 99.2251 39.3467C99.5382 39.3467 99.7496 39.2563 99.8596 39.0769C99.9395 38.9471 99.9791 38.7077 99.9791 38.3581C99.9739 38.2535 99.9719 38.1435 99.9719 38.0287V37.6848H99.882V38.042C99.882 38.4594 99.8596 38.7421 99.8163 38.8914C99.7525 39.1102 99.6201 39.2193 99.4202 39.2193C99.2483 39.2193 99.138 39.1245 99.0896 38.935C99.0704 38.8558 99.0604 38.6815 99.0604 38.4126V36.3821H99.9192V36.1648H99.0604V34.5854H98.933C98.933 34.9612 98.8502 35.2996 98.6835 35.6005C98.4772 35.9763 98.169 36.2143 97.7609 36.3147L97.7608 36.3146ZM100.575 37.8998C100.367 38.0846 100.263 38.312 100.263 38.5819C100.263 38.8564 100.37 39.0616 100.584 39.1963C100.739 39.2965 100.92 39.3467 101.129 39.3467C101.338 39.3467 101.505 39.3218 101.63 39.2721C101.839 39.1882 101.996 39.0249 102.1 38.7823C102.14 38.9953 102.223 39.146 102.349 39.235C102.454 39.3093 102.613 39.3467 102.829 39.3467C103.105 39.3467 103.287 39.2841 103.377 39.159C103.447 39.0594 103.482 38.8648 103.482 38.5753C103.478 38.4806 103.476 38.3811 103.476 38.2759V37.9466H103.386V38.0134C103.386 38.0877 103.386 38.1599 103.39 38.2293C103.392 38.2985 103.393 38.3683 103.393 38.4374C103.393 38.6906 103.37 38.8841 103.326 39.0182C103.281 39.152 103.193 39.2192 103.064 39.2192C102.92 39.2192 102.83 39.1345 102.795 38.9651C102.78 38.8956 102.773 38.711 102.773 38.4125V36.762C102.773 36.5728 102.688 36.4158 102.519 36.2918C102.33 36.1521 102.05 36.0822 101.682 36.0822C101.478 36.0822 101.276 36.1149 101.077 36.1795C100.799 36.2694 100.624 36.4118 100.554 36.6062C100.525 36.6963 100.51 36.7764 100.51 36.8459C100.51 36.9906 100.582 37.1106 100.728 37.205C100.778 37.2403 100.836 37.2578 100.901 37.2578C101.003 37.2578 101.09 37.2227 101.165 37.153C101.241 37.0827 101.278 36.9931 101.278 36.8834C101.278 36.7884 101.249 36.7034 101.19 36.6288C101.129 36.5538 101.052 36.5163 100.957 36.5163C100.928 36.5163 100.903 36.5192 100.883 36.5241C100.923 36.4118 101.008 36.3228 101.136 36.2565C101.265 36.1905 101.416 36.1571 101.587 36.1571C101.797 36.1571 101.934 36.1924 101.998 36.2628C102.061 36.3329 102.093 36.4681 102.093 36.6688V37.1051C102.093 37.2949 102.04 37.4171 101.936 37.4722C101.832 37.5271 101.632 37.5676 101.334 37.5922C101.037 37.6172 100.783 37.7197 100.575 37.8997L100.575 37.8998ZM100.972 38.5268C100.972 38.2558 101.022 38.0454 101.122 37.8952C101.207 37.7695 101.321 37.6894 101.465 37.6543C101.575 37.6391 101.689 37.623 101.805 37.605C101.922 37.5877 102.011 37.5387 102.071 37.4589V38.4594C102.071 38.6847 101.995 38.8768 101.842 39.035C101.691 39.1929 101.52 39.2716 101.331 39.2716C101.207 39.2716 101.116 39.2202 101.058 39.1177C101.002 39.0146 100.972 38.8177 100.972 38.5269V38.5268Z" fill="#0B212B"/>
</g>
</svg>
