<svg width="20" height="20" viewBox="0 0 20 20" fill="none" xmlns="http://www.w3.org/2000/svg">
<path fill-rule="evenodd" clip-rule="evenodd" d="M15.8337 3.33366H4.16699C3.70675 3.33366 3.33366 3.70675 3.33366 4.16699V15.8337C3.33366 16.2939 3.70675 16.667 4.16699 16.667H15.8337C16.2939 16.667 16.667 16.2939 16.667 15.8337V4.16699C16.667 3.70675 16.2939 3.33366 15.8337 3.33366ZM4.16699 1.66699C2.78628 1.66699 1.66699 2.78628 1.66699 4.16699V15.8337C1.66699 17.2144 2.78628 18.3337 4.16699 18.3337H15.8337C17.2144 18.3337 18.3337 17.2144 18.3337 15.8337V4.16699C18.3337 2.78628 17.2144 1.66699 15.8337 1.66699H4.16699Z" fill="white"/>
<path d="M9.16699 5.83366H10.8337V14.167H9.16699V5.83366Z" fill="white"/>
<path d="M12.5003 10.8337H14.167V14.167H12.5003V10.8337Z" fill="white"/>
<path d="M5.83366 8.33366H7.50033V14.167H5.83366V8.33366Z" fill="white"/>
</svg>
